<mxfile host="Electron" modified="2023-09-27T09:43:34.575Z" agent="Mozilla/5.0 (Macintosh; Intel Mac OS X 10_15_7) AppleWebKit/537.36 (KHTML, like Gecko) draw.io/21.6.5 Chrome/114.0.5735.243 Electron/25.3.1 Safari/537.36" etag="lS0LifkqL5xTwzdWjHX7" version="21.6.5" type="device">
  <diagram name="第 1 页" id="R7b6aLfyl-4_5cwl-2uL">
    <mxGraphModel dx="1207" dy="874" grid="0" gridSize="10" guides="1" tooltips="1" connect="1" arrows="1" fold="1" page="1" pageScale="1" pageWidth="3300" pageHeight="4681" math="0" shadow="0">
      <root>
        <mxCell id="0" />
        <mxCell id="1" parent="0" />
        <mxCell id="VFy6zFvmx7hEdRAl72uf-279" value="COMMIT(提交)" style="swimlane;whiteSpace=wrap;html=1;rounded=0;strokeColor=default;strokeWidth=1.6;fontFamily=Helvetica;fontSize=14;fontColor=default;fillColor=default;" vertex="1" parent="1">
          <mxGeometry x="2717" y="423" width="374" height="858" as="geometry" />
        </mxCell>
        <mxCell id="VFy6zFvmx7hEdRAl72uf-272" value="&lt;h6&gt;&lt;span style=&quot;font-size: 14px;&quot;&gt;RegFile&lt;/span&gt;&lt;/h6&gt;" style="rounded=0;whiteSpace=wrap;html=1;strokeWidth=1.6;fillColor=#f8cecc;strokeColor=#b85450;" vertex="1" parent="VFy6zFvmx7hEdRAl72uf-279">
          <mxGeometry x="149" y="380.28999999999996" width="159" height="68" as="geometry" />
        </mxCell>
        <mxCell id="VFy6zFvmx7hEdRAl72uf-273" value="&lt;h6&gt;&lt;span style=&quot;font-size: 14px;&quot;&gt;CSR&lt;/span&gt;&lt;/h6&gt;" style="rounded=0;whiteSpace=wrap;html=1;strokeWidth=1.6;fillColor=#f8cecc;strokeColor=#b85450;" vertex="1" parent="VFy6zFvmx7hEdRAl72uf-279">
          <mxGeometry x="149" y="448.28999999999996" width="159" height="68" as="geometry" />
        </mxCell>
        <mxCell id="VFy6zFvmx7hEdRAl72uf-274" value="&lt;h6&gt;&lt;span style=&quot;font-size: 14px;&quot;&gt;LSU&lt;/span&gt;&lt;/h6&gt;" style="rounded=0;whiteSpace=wrap;html=1;strokeWidth=1.6;fillColor=#f8cecc;strokeColor=#b85450;" vertex="1" parent="VFy6zFvmx7hEdRAl72uf-279">
          <mxGeometry x="149" y="516.29" width="159" height="68" as="geometry" />
        </mxCell>
        <mxCell id="VFy6zFvmx7hEdRAl72uf-174" value="ID(译码)" style="swimlane;whiteSpace=wrap;html=1;rounded=0;strokeColor=default;strokeWidth=1.6;fontFamily=Helvetica;fontSize=14;fontColor=default;fillColor=default;" vertex="1" parent="1">
          <mxGeometry x="1127" y="423" width="412" height="858" as="geometry" />
        </mxCell>
        <mxCell id="VFy6zFvmx7hEdRAl72uf-164" value="&lt;h6&gt;&lt;span style=&quot;font-size: 14px;&quot;&gt;CSR&lt;/span&gt;&lt;/h6&gt;" style="rounded=0;whiteSpace=wrap;html=1;strokeWidth=1.6;" vertex="1" parent="VFy6zFvmx7hEdRAl72uf-174">
          <mxGeometry x="303" y="283.5" width="91" height="68" as="geometry" />
        </mxCell>
        <mxCell id="VFy6zFvmx7hEdRAl72uf-155" value="" style="startSize=0;rounded=0;strokeColor=default;strokeWidth=1.6;fontFamily=Helvetica;fontSize=14;fontColor=default;fillColor=default;html=1;" vertex="1" parent="VFy6zFvmx7hEdRAl72uf-174">
          <mxGeometry x="51" y="166" width="200" height="200" as="geometry" />
        </mxCell>
        <mxCell id="VFy6zFvmx7hEdRAl72uf-137" value="C Decoder" style="rounded=0;whiteSpace=wrap;html=1;strokeColor=default;strokeWidth=1.6;fontFamily=Helvetica;fontSize=14;fontColor=default;fillColor=default;horizontal=1;" vertex="1" parent="VFy6zFvmx7hEdRAl72uf-155">
          <mxGeometry x="99" y="14.5" width="84" height="65" as="geometry" />
        </mxCell>
        <mxCell id="VFy6zFvmx7hEdRAl72uf-152" value="Decoder" style="rounded=0;whiteSpace=wrap;html=1;strokeColor=default;strokeWidth=1.6;fontFamily=Helvetica;fontSize=14;fontColor=default;fillColor=default;horizontal=1;" vertex="1" parent="VFy6zFvmx7hEdRAl72uf-155">
          <mxGeometry x="99" y="120.5" width="84" height="65" as="geometry" />
        </mxCell>
        <mxCell id="VFy6zFvmx7hEdRAl72uf-153" style="edgeStyle=orthogonalEdgeStyle;rounded=0;orthogonalLoop=1;jettySize=auto;html=1;exitX=0.5;exitY=1;exitDx=0;exitDy=0;entryX=0.5;entryY=0;entryDx=0;entryDy=0;fontFamily=Helvetica;fontSize=14;fontColor=default;" edge="1" parent="VFy6zFvmx7hEdRAl72uf-155" source="VFy6zFvmx7hEdRAl72uf-137" target="VFy6zFvmx7hEdRAl72uf-152">
          <mxGeometry relative="1" as="geometry" />
        </mxCell>
        <mxCell id="VFy6zFvmx7hEdRAl72uf-154" value="inst" style="edgeLabel;html=1;align=center;verticalAlign=middle;resizable=0;points=[];fontSize=14;fontFamily=Helvetica;fontColor=default;" vertex="1" connectable="0" parent="VFy6zFvmx7hEdRAl72uf-153">
          <mxGeometry x="-0.1336" y="-4" relative="1" as="geometry">
            <mxPoint x="4" y="-3" as="offset" />
          </mxGeometry>
        </mxCell>
        <mxCell id="VFy6zFvmx7hEdRAl72uf-156" value="&lt;b&gt;decoder&lt;/b&gt;" style="text;html=1;align=center;verticalAlign=middle;resizable=0;points=[];autosize=1;strokeColor=none;fillColor=none;fontSize=14;fontFamily=Helvetica;fontColor=default;" vertex="1" parent="VFy6zFvmx7hEdRAl72uf-155">
          <mxGeometry x="-1" width="72" height="29" as="geometry" />
        </mxCell>
        <mxCell id="VFy6zFvmx7hEdRAl72uf-157" value="" style="endArrow=classic;html=1;rounded=0;fontFamily=Helvetica;fontSize=14;fontColor=default;entryX=1;entryY=0.25;entryDx=0;entryDy=0;" edge="1" parent="VFy6zFvmx7hEdRAl72uf-155">
          <mxGeometry width="50" height="50" relative="1" as="geometry">
            <mxPoint x="230" y="-230" as="sourcePoint" />
            <mxPoint x="183" y="136" as="targetPoint" />
            <Array as="points">
              <mxPoint x="230" y="136" />
            </Array>
          </mxGeometry>
        </mxCell>
        <mxCell id="VFy6zFvmx7hEdRAl72uf-158" value="irq" style="edgeLabel;html=1;align=center;verticalAlign=middle;resizable=0;points=[];fontSize=14;fontFamily=Helvetica;fontColor=default;" vertex="1" connectable="0" parent="VFy6zFvmx7hEdRAl72uf-157">
          <mxGeometry x="-0.7115" y="-2" relative="1" as="geometry">
            <mxPoint x="-14" y="302" as="offset" />
          </mxGeometry>
        </mxCell>
        <mxCell id="VFy6zFvmx7hEdRAl72uf-165" style="edgeStyle=orthogonalEdgeStyle;rounded=0;orthogonalLoop=1;jettySize=auto;html=1;exitX=0.5;exitY=1;exitDx=0;exitDy=0;fontFamily=Helvetica;fontSize=14;fontColor=default;entryX=0;entryY=0.5;entryDx=0;entryDy=0;" edge="1" parent="VFy6zFvmx7hEdRAl72uf-174" source="VFy6zFvmx7hEdRAl72uf-155" target="VFy6zFvmx7hEdRAl72uf-169">
          <mxGeometry relative="1" as="geometry">
            <mxPoint x="151" y="429" as="targetPoint" />
          </mxGeometry>
        </mxCell>
        <mxCell id="VFy6zFvmx7hEdRAl72uf-170" value="issue_n" style="edgeLabel;html=1;align=center;verticalAlign=middle;resizable=0;points=[];fontSize=14;fontFamily=Helvetica;fontColor=default;" vertex="1" connectable="0" parent="VFy6zFvmx7hEdRAl72uf-165">
          <mxGeometry x="-0.4645" relative="1" as="geometry">
            <mxPoint y="-66" as="offset" />
          </mxGeometry>
        </mxCell>
        <mxCell id="VFy6zFvmx7hEdRAl72uf-169" value="&lt;h6&gt;&lt;span style=&quot;font-size: 14px;&quot;&gt;D&lt;/span&gt;&lt;/h6&gt;" style="rounded=0;whiteSpace=wrap;html=1;strokeWidth=1.6;fillColor=#dae8fc;strokeColor=#6c8ebf;" vertex="1" parent="VFy6zFvmx7hEdRAl72uf-174">
          <mxGeometry x="361" y="451" width="91" height="68" as="geometry" />
        </mxCell>
        <mxCell id="VFy6zFvmx7hEdRAl72uf-218" value="ISSUE(发射)" style="swimlane;whiteSpace=wrap;html=1;rounded=0;strokeColor=default;strokeWidth=1.6;fontFamily=Helvetica;fontSize=14;fontColor=default;fillColor=default;" vertex="1" parent="1">
          <mxGeometry x="1539" y="423" width="610" height="858" as="geometry" />
        </mxCell>
        <mxCell id="VFy6zFvmx7hEdRAl72uf-181" value="&lt;h6&gt;&lt;span style=&quot;font-size: 14px;&quot;&gt;Scoreboard&lt;/span&gt;&lt;/h6&gt;" style="rounded=0;whiteSpace=wrap;html=1;strokeWidth=1.6;" vertex="1" parent="VFy6zFvmx7hEdRAl72uf-218">
          <mxGeometry x="139" y="101" width="237" height="68" as="geometry" />
        </mxCell>
        <mxCell id="VFy6zFvmx7hEdRAl72uf-186" value="&lt;h6&gt;&lt;span style=&quot;font-size: 14px;&quot;&gt;RegFile&lt;/span&gt;&lt;/h6&gt;" style="rounded=0;whiteSpace=wrap;html=1;strokeWidth=1.6;" vertex="1" parent="VFy6zFvmx7hEdRAl72uf-218">
          <mxGeometry x="402" y="101" width="159" height="68" as="geometry" />
        </mxCell>
        <mxCell id="VFy6zFvmx7hEdRAl72uf-185" value="&lt;h6&gt;&lt;span style=&quot;font-size: 14px;&quot;&gt;Issue&lt;/span&gt;&lt;/h6&gt;" style="rounded=0;whiteSpace=wrap;html=1;strokeWidth=1.6;fillColor=#e1d5e7;strokeColor=#9673a6;" vertex="1" parent="VFy6zFvmx7hEdRAl72uf-218">
          <mxGeometry x="139" y="263" width="424" height="510" as="geometry" />
        </mxCell>
        <mxCell id="VFy6zFvmx7hEdRAl72uf-198" style="edgeStyle=orthogonalEdgeStyle;rounded=0;orthogonalLoop=1;jettySize=auto;html=1;exitX=0.25;exitY=1;exitDx=0;exitDy=0;entryX=0.712;entryY=0.004;entryDx=0;entryDy=0;entryPerimeter=0;fontFamily=Helvetica;fontSize=14;fontColor=default;startSize=23;" edge="1" parent="VFy6zFvmx7hEdRAl72uf-218" source="VFy6zFvmx7hEdRAl72uf-186" target="VFy6zFvmx7hEdRAl72uf-185">
          <mxGeometry relative="1" as="geometry" />
        </mxCell>
        <mxCell id="VFy6zFvmx7hEdRAl72uf-199" value="addr" style="edgeLabel;html=1;align=center;verticalAlign=middle;resizable=0;points=[];fontSize=14;fontFamily=Helvetica;fontColor=default;" vertex="1" connectable="0" parent="VFy6zFvmx7hEdRAl72uf-198">
          <mxGeometry x="-0.1549" relative="1" as="geometry">
            <mxPoint as="offset" />
          </mxGeometry>
        </mxCell>
        <mxCell id="VFy6zFvmx7hEdRAl72uf-200" style="edgeStyle=orthogonalEdgeStyle;rounded=0;orthogonalLoop=1;jettySize=auto;html=1;exitX=0.5;exitY=1;exitDx=0;exitDy=0;entryX=0.81;entryY=-0.003;entryDx=0;entryDy=0;entryPerimeter=0;fontFamily=Helvetica;fontSize=14;fontColor=default;startSize=23;" edge="1" parent="VFy6zFvmx7hEdRAl72uf-218" source="VFy6zFvmx7hEdRAl72uf-186" target="VFy6zFvmx7hEdRAl72uf-185">
          <mxGeometry relative="1" as="geometry" />
        </mxCell>
        <mxCell id="VFy6zFvmx7hEdRAl72uf-201" value="rdata" style="edgeLabel;html=1;align=center;verticalAlign=middle;resizable=0;points=[];fontSize=14;fontFamily=Helvetica;fontColor=default;" vertex="1" connectable="0" parent="VFy6zFvmx7hEdRAl72uf-200">
          <mxGeometry x="-0.1465" y="-1" relative="1" as="geometry">
            <mxPoint as="offset" />
          </mxGeometry>
        </mxCell>
        <mxCell id="VFy6zFvmx7hEdRAl72uf-202" style="edgeStyle=orthogonalEdgeStyle;rounded=0;orthogonalLoop=1;jettySize=auto;html=1;exitX=0.901;exitY=0.004;exitDx=0;exitDy=0;entryX=0.75;entryY=1;entryDx=0;entryDy=0;fontFamily=Helvetica;fontSize=14;fontColor=default;startSize=23;exitPerimeter=0;" edge="1" parent="VFy6zFvmx7hEdRAl72uf-218" source="VFy6zFvmx7hEdRAl72uf-185" target="VFy6zFvmx7hEdRAl72uf-186">
          <mxGeometry relative="1" as="geometry" />
        </mxCell>
        <mxCell id="VFy6zFvmx7hEdRAl72uf-203" value="wdata" style="edgeLabel;html=1;align=center;verticalAlign=middle;resizable=0;points=[];fontSize=14;fontFamily=Helvetica;fontColor=default;" vertex="1" connectable="0" parent="VFy6zFvmx7hEdRAl72uf-202">
          <mxGeometry x="0.1377" relative="1" as="geometry">
            <mxPoint as="offset" />
          </mxGeometry>
        </mxCell>
        <mxCell id="VFy6zFvmx7hEdRAl72uf-266" value="tail" style="text;html=1;align=center;verticalAlign=middle;resizable=0;points=[];autosize=1;strokeColor=none;fillColor=none;fontSize=14;fontFamily=Helvetica;fontColor=default;horizontal=0;" vertex="1" parent="VFy6zFvmx7hEdRAl72uf-218">
          <mxGeometry x="139" y="120" width="35" height="30" as="geometry" />
        </mxCell>
        <mxCell id="VFy6zFvmx7hEdRAl72uf-267" value="head" style="text;html=1;align=center;verticalAlign=middle;resizable=0;points=[];autosize=1;strokeColor=none;fillColor=none;fontSize=14;fontFamily=Helvetica;fontColor=default;horizontal=0;" vertex="1" parent="VFy6zFvmx7hEdRAl72uf-218">
          <mxGeometry x="339" y="114" width="35" height="43" as="geometry" />
        </mxCell>
        <mxCell id="VFy6zFvmx7hEdRAl72uf-99" value="Frontend" style="swimlane;whiteSpace=wrap;html=1;rounded=0;strokeColor=default;strokeWidth=1.6;fontFamily=Helvetica;fontSize=14;fontColor=default;fillColor=default;" vertex="1" parent="1">
          <mxGeometry x="309" y="423" width="818" height="858" as="geometry">
            <mxRectangle x="64" y="413" width="193" height="29" as="alternateBounds" />
          </mxGeometry>
        </mxCell>
        <mxCell id="VFy6zFvmx7hEdRAl72uf-16" value="Inst Scan" style="rounded=0;whiteSpace=wrap;html=1;strokeColor=default;strokeWidth=1.6;fontFamily=Helvetica;fontSize=14;fontColor=default;fillColor=default;fontStyle=1;horizontal=0;" vertex="1" parent="VFy6zFvmx7hEdRAl72uf-99">
          <mxGeometry x="562" y="276" width="34" height="169" as="geometry" />
        </mxCell>
        <mxCell id="VFy6zFvmx7hEdRAl72uf-28" value="" style="group;horizontal=1;" vertex="1" connectable="0" parent="VFy6zFvmx7hEdRAl72uf-99">
          <mxGeometry x="433" y="306" width="68" height="109" as="geometry" />
        </mxCell>
        <mxCell id="VFy6zFvmx7hEdRAl72uf-18" value="&lt;h6&gt;&lt;font style=&quot;font-size: 14px;&quot;&gt;Inst Realign&lt;/font&gt;&lt;/h6&gt;" style="rounded=0;whiteSpace=wrap;html=1;strokeWidth=1.6;verticalAlign=middle;horizontal=0;" vertex="1" parent="VFy6zFvmx7hEdRAl72uf-28">
          <mxGeometry x="6.452554744525547" width="55.59124087591241" height="108.99999999999999" as="geometry" />
        </mxCell>
        <mxCell id="VFy6zFvmx7hEdRAl72uf-66" style="edgeStyle=orthogonalEdgeStyle;rounded=0;orthogonalLoop=1;jettySize=auto;html=1;exitX=1;exitY=0.5;exitDx=0;exitDy=0;entryX=0;entryY=0.5;entryDx=0;entryDy=0;fontFamily=Helvetica;fontSize=14;fontColor=default;" edge="1" parent="VFy6zFvmx7hEdRAl72uf-99" source="VFy6zFvmx7hEdRAl72uf-33" target="VFy6zFvmx7hEdRAl72uf-18">
          <mxGeometry relative="1" as="geometry" />
        </mxCell>
        <mxCell id="VFy6zFvmx7hEdRAl72uf-134" style="edgeStyle=orthogonalEdgeStyle;rounded=0;orthogonalLoop=1;jettySize=auto;html=1;exitX=0.5;exitY=1;exitDx=0;exitDy=0;entryX=0;entryY=0.5;entryDx=0;entryDy=0;fontFamily=Helvetica;fontSize=14;fontColor=default;" edge="1" parent="VFy6zFvmx7hEdRAl72uf-99" source="VFy6zFvmx7hEdRAl72uf-33" target="VFy6zFvmx7hEdRAl72uf-109">
          <mxGeometry relative="1" as="geometry" />
        </mxCell>
        <mxCell id="VFy6zFvmx7hEdRAl72uf-135" value="vaddr" style="edgeLabel;html=1;align=center;verticalAlign=middle;resizable=0;points=[];fontSize=14;fontFamily=Helvetica;fontColor=default;" vertex="1" connectable="0" parent="VFy6zFvmx7hEdRAl72uf-134">
          <mxGeometry x="-0.8819" y="2" relative="1" as="geometry">
            <mxPoint as="offset" />
          </mxGeometry>
        </mxCell>
        <mxCell id="VFy6zFvmx7hEdRAl72uf-33" value="I$" style="rounded=0;whiteSpace=wrap;html=1;strokeColor=#d6b656;strokeWidth=1.6;fontFamily=Helvetica;fontSize=14;fillColor=#fff2cc;fontStyle=1" vertex="1" parent="VFy6zFvmx7hEdRAl72uf-99">
          <mxGeometry x="314" y="324.5" width="76" height="72" as="geometry" />
        </mxCell>
        <mxCell id="VFy6zFvmx7hEdRAl72uf-61" style="edgeStyle=orthogonalEdgeStyle;rounded=0;orthogonalLoop=1;jettySize=auto;html=1;exitX=0.5;exitY=0;exitDx=0;exitDy=0;fontFamily=Helvetica;fontSize=14;fontColor=default;" edge="1" parent="VFy6zFvmx7hEdRAl72uf-99" source="VFy6zFvmx7hEdRAl72uf-42" target="VFy6zFvmx7hEdRAl72uf-33">
          <mxGeometry relative="1" as="geometry" />
        </mxCell>
        <mxCell id="VFy6zFvmx7hEdRAl72uf-42" value="npc_select" style="shape=trapezoid;perimeter=trapezoidPerimeter;whiteSpace=wrap;html=1;fixedSize=1;rounded=0;strokeColor=default;strokeWidth=1.6;fontFamily=Helvetica;fontSize=14;fontColor=default;fillColor=default;direction=south;horizontal=0;" vertex="1" parent="VFy6zFvmx7hEdRAl72uf-99">
          <mxGeometry x="208" y="266" width="30" height="189" as="geometry" />
        </mxCell>
        <mxCell id="VFy6zFvmx7hEdRAl72uf-48" value="" style="endArrow=classic;html=1;rounded=0;fontFamily=Helvetica;fontSize=14;fontColor=default;exitX=0;exitY=0.5;exitDx=0;exitDy=0;entryX=0.095;entryY=1;entryDx=0;entryDy=0;entryPerimeter=0;" edge="1" parent="VFy6zFvmx7hEdRAl72uf-99" source="VFy6zFvmx7hEdRAl72uf-35" target="VFy6zFvmx7hEdRAl72uf-42">
          <mxGeometry width="50" height="50" relative="1" as="geometry">
            <mxPoint x="96" y="351" as="sourcePoint" />
            <mxPoint x="205" y="284" as="targetPoint" />
            <Array as="points">
              <mxPoint x="79" y="90" />
              <mxPoint x="79" y="284" />
            </Array>
          </mxGeometry>
        </mxCell>
        <mxCell id="VFy6zFvmx7hEdRAl72uf-49" value="replay_addr" style="edgeLabel;html=1;align=center;verticalAlign=middle;resizable=0;points=[];fontSize=14;fontFamily=Helvetica;fontColor=default;" vertex="1" connectable="0" parent="VFy6zFvmx7hEdRAl72uf-48">
          <mxGeometry x="0.4821" relative="1" as="geometry">
            <mxPoint x="74" y="134" as="offset" />
          </mxGeometry>
        </mxCell>
        <mxCell id="VFy6zFvmx7hEdRAl72uf-50" value="" style="endArrow=classic;html=1;rounded=0;fontFamily=Helvetica;fontSize=14;fontColor=default;entryX=0.25;entryY=1;entryDx=0;entryDy=0;exitX=0.5;exitY=0;exitDx=0;exitDy=0;" edge="1" parent="VFy6zFvmx7hEdRAl72uf-99" source="VFy6zFvmx7hEdRAl72uf-76">
          <mxGeometry width="50" height="50" relative="1" as="geometry">
            <mxPoint x="96" y="373" as="sourcePoint" />
            <mxPoint x="208" y="373" as="targetPoint" />
            <Array as="points">
              <mxPoint x="568" y="610" />
              <mxPoint x="-30" y="610" />
              <mxPoint x="-30" y="375" />
            </Array>
          </mxGeometry>
        </mxCell>
        <mxCell id="VFy6zFvmx7hEdRAl72uf-51" value="resolved_addr" style="edgeLabel;html=1;align=center;verticalAlign=middle;resizable=0;points=[];fontSize=14;fontFamily=Helvetica;fontColor=default;" vertex="1" connectable="0" parent="VFy6zFvmx7hEdRAl72uf-50">
          <mxGeometry x="0.4821" relative="1" as="geometry">
            <mxPoint x="176" y="-50" as="offset" />
          </mxGeometry>
        </mxCell>
        <mxCell id="VFy6zFvmx7hEdRAl72uf-52" value="" style="endArrow=classic;html=1;rounded=0;fontFamily=Helvetica;fontSize=14;fontColor=default;entryX=0.25;entryY=1;entryDx=0;entryDy=0;exitX=1;exitY=0.25;exitDx=0;exitDy=0;" edge="1" parent="VFy6zFvmx7hEdRAl72uf-99" source="VFy6zFvmx7hEdRAl72uf-81">
          <mxGeometry width="50" height="50" relative="1" as="geometry">
            <mxPoint x="96" y="309" as="sourcePoint" />
            <mxPoint x="208" y="309" as="targetPoint" />
            <Array as="points">
              <mxPoint x="747" y="318" />
              <mxPoint x="744" y="583" />
              <mxPoint x="49" y="583" />
              <mxPoint x="49" y="309" />
            </Array>
          </mxGeometry>
        </mxCell>
        <mxCell id="VFy6zFvmx7hEdRAl72uf-93" value="bp_addr" style="edgeLabel;html=1;align=center;verticalAlign=middle;resizable=0;points=[];fontSize=14;fontFamily=Helvetica;fontColor=default;" vertex="1" connectable="0" parent="VFy6zFvmx7hEdRAl72uf-52">
          <mxGeometry x="0.8983" y="1" relative="1" as="geometry">
            <mxPoint x="23" y="1" as="offset" />
          </mxGeometry>
        </mxCell>
        <mxCell id="VFy6zFvmx7hEdRAl72uf-54" value="" style="endArrow=classic;html=1;rounded=0;fontFamily=Helvetica;fontSize=14;fontColor=default;entryX=0.25;entryY=1;entryDx=0;entryDy=0;exitX=0;exitY=0.5;exitDx=0;exitDy=0;" edge="1" parent="VFy6zFvmx7hEdRAl72uf-99" source="VFy6zFvmx7hEdRAl72uf-131">
          <mxGeometry width="50" height="50" relative="1" as="geometry">
            <mxPoint x="96" y="396" as="sourcePoint" />
            <mxPoint x="208" y="396" as="targetPoint" />
            <Array as="points">
              <mxPoint x="-17" y="686" />
              <mxPoint x="-17" y="396" />
            </Array>
          </mxGeometry>
        </mxCell>
        <mxCell id="VFy6zFvmx7hEdRAl72uf-55" value="epc" style="edgeLabel;html=1;align=center;verticalAlign=middle;resizable=0;points=[];fontSize=14;fontFamily=Helvetica;fontColor=default;" vertex="1" connectable="0" parent="VFy6zFvmx7hEdRAl72uf-54">
          <mxGeometry x="0.4821" relative="1" as="geometry">
            <mxPoint x="106" y="1" as="offset" />
          </mxGeometry>
        </mxCell>
        <mxCell id="VFy6zFvmx7hEdRAl72uf-56" value="" style="endArrow=classic;html=1;rounded=0;fontFamily=Helvetica;fontSize=14;fontColor=default;entryX=0.25;entryY=1;entryDx=0;entryDy=0;exitX=0;exitY=0.25;exitDx=0;exitDy=0;" edge="1" parent="VFy6zFvmx7hEdRAl72uf-99" source="VFy6zFvmx7hEdRAl72uf-131">
          <mxGeometry width="50" height="50" relative="1" as="geometry">
            <mxPoint x="96" y="415" as="sourcePoint" />
            <mxPoint x="208" y="415" as="targetPoint" />
            <Array as="points">
              <mxPoint x="-7" y="669" />
              <mxPoint x="-7" y="415" />
            </Array>
          </mxGeometry>
        </mxCell>
        <mxCell id="VFy6zFvmx7hEdRAl72uf-57" value="tv_base" style="edgeLabel;html=1;align=center;verticalAlign=middle;resizable=0;points=[];fontSize=14;fontFamily=Helvetica;fontColor=default;" vertex="1" connectable="0" parent="VFy6zFvmx7hEdRAl72uf-56">
          <mxGeometry x="0.4821" relative="1" as="geometry">
            <mxPoint x="86" y="1" as="offset" />
          </mxGeometry>
        </mxCell>
        <mxCell id="VFy6zFvmx7hEdRAl72uf-62" style="edgeStyle=orthogonalEdgeStyle;rounded=0;orthogonalLoop=1;jettySize=auto;html=1;exitX=0.5;exitY=0;exitDx=0;exitDy=0;fontFamily=Helvetica;fontSize=14;fontColor=default;entryX=0.886;entryY=0.967;entryDx=0;entryDy=0;entryPerimeter=0;" edge="1" parent="VFy6zFvmx7hEdRAl72uf-99" source="VFy6zFvmx7hEdRAl72uf-42" target="VFy6zFvmx7hEdRAl72uf-42">
          <mxGeometry relative="1" as="geometry">
            <mxPoint x="237" y="369.75" as="sourcePoint" />
            <mxPoint x="202" y="433" as="targetPoint" />
            <Array as="points">
              <mxPoint x="238" y="376" />
              <mxPoint x="271" y="376" />
              <mxPoint x="271" y="469" />
              <mxPoint x="63" y="469" />
              <mxPoint x="63" y="434" />
            </Array>
          </mxGeometry>
        </mxCell>
        <mxCell id="VFy6zFvmx7hEdRAl72uf-63" value="+4" style="edgeLabel;html=1;align=center;verticalAlign=middle;resizable=0;points=[];fontSize=14;fontFamily=Helvetica;fontColor=default;" vertex="1" connectable="0" parent="VFy6zFvmx7hEdRAl72uf-62">
          <mxGeometry x="0.8527" y="-1" relative="1" as="geometry">
            <mxPoint as="offset" />
          </mxGeometry>
        </mxCell>
        <mxCell id="VFy6zFvmx7hEdRAl72uf-64" value="" style="endArrow=classic;html=1;rounded=0;fontFamily=Helvetica;fontSize=14;fontColor=default;entryX=0.25;entryY=1;entryDx=0;entryDy=0;exitX=0.5;exitY=1;exitDx=0;exitDy=0;" edge="1" parent="VFy6zFvmx7hEdRAl72uf-99" source="VFy6zFvmx7hEdRAl72uf-129">
          <mxGeometry width="50" height="50" relative="1" as="geometry">
            <mxPoint x="96" y="329" as="sourcePoint" />
            <mxPoint x="208" y="329" as="targetPoint" />
            <Array as="points">
              <mxPoint x="299" y="805" />
              <mxPoint x="-45" y="805" />
              <mxPoint x="-45" y="329" />
            </Array>
          </mxGeometry>
        </mxCell>
        <mxCell id="VFy6zFvmx7hEdRAl72uf-65" value="flush_pc" style="edgeLabel;html=1;align=center;verticalAlign=middle;resizable=0;points=[];fontSize=14;fontFamily=Helvetica;fontColor=default;" vertex="1" connectable="0" parent="VFy6zFvmx7hEdRAl72uf-64">
          <mxGeometry x="0.4821" relative="1" as="geometry">
            <mxPoint x="204" y="-45" as="offset" />
          </mxGeometry>
        </mxCell>
        <mxCell id="VFy6zFvmx7hEdRAl72uf-74" style="edgeStyle=orthogonalEdgeStyle;rounded=0;orthogonalLoop=1;jettySize=auto;html=1;exitX=1;exitY=0.5;exitDx=0;exitDy=0;entryX=0;entryY=0.25;entryDx=0;entryDy=0;fontFamily=Helvetica;fontSize=14;fontColor=default;" edge="1" parent="VFy6zFvmx7hEdRAl72uf-99" source="VFy6zFvmx7hEdRAl72uf-18" target="VFy6zFvmx7hEdRAl72uf-36">
          <mxGeometry relative="1" as="geometry">
            <Array as="points">
              <mxPoint x="528" y="361" />
              <mxPoint x="528" y="112" />
            </Array>
          </mxGeometry>
        </mxCell>
        <mxCell id="VFy6zFvmx7hEdRAl72uf-75" style="edgeStyle=orthogonalEdgeStyle;rounded=0;orthogonalLoop=1;jettySize=auto;html=1;exitX=1;exitY=0.5;exitDx=0;exitDy=0;entryX=0;entryY=0.5;entryDx=0;entryDy=0;fontFamily=Helvetica;fontSize=14;fontColor=default;" edge="1" parent="VFy6zFvmx7hEdRAl72uf-99" source="VFy6zFvmx7hEdRAl72uf-18" target="VFy6zFvmx7hEdRAl72uf-16">
          <mxGeometry relative="1" as="geometry" />
        </mxCell>
        <mxCell id="VFy6zFvmx7hEdRAl72uf-81" value="comb" style="rounded=0;whiteSpace=wrap;html=1;strokeColor=default;strokeWidth=1.6;fontFamily=Helvetica;fontSize=14;fontColor=default;fillColor=default;fontStyle=1;horizontal=0;" vertex="1" parent="VFy6zFvmx7hEdRAl72uf-99">
          <mxGeometry x="661" y="276" width="34" height="169" as="geometry" />
        </mxCell>
        <mxCell id="VFy6zFvmx7hEdRAl72uf-86" style="edgeStyle=orthogonalEdgeStyle;rounded=0;orthogonalLoop=1;jettySize=auto;html=1;exitX=1;exitY=0.5;exitDx=0;exitDy=0;entryX=0;entryY=0.5;entryDx=0;entryDy=0;fontFamily=Helvetica;fontSize=14;fontColor=default;" edge="1" parent="VFy6zFvmx7hEdRAl72uf-99" source="VFy6zFvmx7hEdRAl72uf-16" target="VFy6zFvmx7hEdRAl72uf-81">
          <mxGeometry relative="1" as="geometry" />
        </mxCell>
        <mxCell id="VFy6zFvmx7hEdRAl72uf-91" value="branch" style="edgeLabel;html=1;align=center;verticalAlign=middle;resizable=0;points=[];fontSize=14;fontFamily=Helvetica;fontColor=default;" vertex="1" connectable="0" parent="VFy6zFvmx7hEdRAl72uf-86">
          <mxGeometry x="-0.2615" relative="1" as="geometry">
            <mxPoint y="1" as="offset" />
          </mxGeometry>
        </mxCell>
        <mxCell id="VFy6zFvmx7hEdRAl72uf-88" style="edgeStyle=orthogonalEdgeStyle;rounded=0;orthogonalLoop=1;jettySize=auto;html=1;exitX=1;exitY=0.25;exitDx=0;exitDy=0;entryX=0;entryY=0.25;entryDx=0;entryDy=0;fontFamily=Helvetica;fontSize=14;fontColor=default;" edge="1" parent="VFy6zFvmx7hEdRAl72uf-99" source="VFy6zFvmx7hEdRAl72uf-16" target="VFy6zFvmx7hEdRAl72uf-81">
          <mxGeometry relative="1" as="geometry" />
        </mxCell>
        <mxCell id="VFy6zFvmx7hEdRAl72uf-90" value="call/ret" style="edgeLabel;html=1;align=center;verticalAlign=middle;resizable=0;points=[];fontSize=14;fontFamily=Helvetica;fontColor=default;" vertex="1" connectable="0" parent="VFy6zFvmx7hEdRAl72uf-88">
          <mxGeometry x="-0.1385" y="-1" relative="1" as="geometry">
            <mxPoint as="offset" />
          </mxGeometry>
        </mxCell>
        <mxCell id="VFy6zFvmx7hEdRAl72uf-89" style="edgeStyle=orthogonalEdgeStyle;rounded=0;orthogonalLoop=1;jettySize=auto;html=1;exitX=1;exitY=0.75;exitDx=0;exitDy=0;entryX=0;entryY=0.75;entryDx=0;entryDy=0;fontFamily=Helvetica;fontSize=14;fontColor=default;" edge="1" parent="VFy6zFvmx7hEdRAl72uf-99" source="VFy6zFvmx7hEdRAl72uf-16" target="VFy6zFvmx7hEdRAl72uf-81">
          <mxGeometry relative="1" as="geometry" />
        </mxCell>
        <mxCell id="VFy6zFvmx7hEdRAl72uf-92" value="jalr..." style="edgeLabel;html=1;align=center;verticalAlign=middle;resizable=0;points=[];fontSize=14;fontFamily=Helvetica;fontColor=default;" vertex="1" connectable="0" parent="VFy6zFvmx7hEdRAl72uf-89">
          <mxGeometry x="-0.2" y="1" relative="1" as="geometry">
            <mxPoint as="offset" />
          </mxGeometry>
        </mxCell>
        <mxCell id="VFy6zFvmx7hEdRAl72uf-133" style="edgeStyle=orthogonalEdgeStyle;rounded=0;orthogonalLoop=1;jettySize=auto;html=1;exitX=0.75;exitY=0;exitDx=0;exitDy=0;entryX=0.029;entryY=0.899;entryDx=0;entryDy=0;entryPerimeter=0;fontFamily=Helvetica;fontSize=14;fontColor=default;" edge="1" parent="VFy6zFvmx7hEdRAl72uf-99" source="VFy6zFvmx7hEdRAl72uf-109" target="VFy6zFvmx7hEdRAl72uf-81">
          <mxGeometry relative="1" as="geometry">
            <Array as="points">
              <mxPoint x="646" y="428" />
            </Array>
          </mxGeometry>
        </mxCell>
        <mxCell id="VFy6zFvmx7hEdRAl72uf-109" value="" style="startSize=0;rounded=0;strokeColor=default;strokeWidth=1.6;fontFamily=Helvetica;fontSize=14;fontColor=default;fillColor=default;html=1;" vertex="1" parent="VFy6zFvmx7hEdRAl72uf-99">
          <mxGeometry x="413" y="489" width="310.5" height="82.5" as="geometry">
            <mxRectangle x="196.5" y="487" width="50" height="44" as="alternateBounds" />
          </mxGeometry>
        </mxCell>
        <mxCell id="VFy6zFvmx7hEdRAl72uf-12" value="&lt;h6&gt;&lt;font style=&quot;font-size: 14px;&quot;&gt;BTH&lt;/font&gt;&lt;/h6&gt;" style="rounded=0;whiteSpace=wrap;html=1;strokeWidth=1.6;" vertex="1" parent="VFy6zFvmx7hEdRAl72uf-109">
          <mxGeometry x="8.25" y="12.5" width="91" height="41" as="geometry" />
        </mxCell>
        <mxCell id="VFy6zFvmx7hEdRAl72uf-77" value="&lt;h6&gt;&lt;font style=&quot;font-size: 14px;&quot;&gt;BTB&lt;/font&gt;&lt;/h6&gt;" style="rounded=0;whiteSpace=wrap;html=1;strokeWidth=1.6;" vertex="1" parent="VFy6zFvmx7hEdRAl72uf-109">
          <mxGeometry x="109.75" y="12.5" width="91" height="41" as="geometry" />
        </mxCell>
        <mxCell id="VFy6zFvmx7hEdRAl72uf-95" value="&lt;h6&gt;&lt;font style=&quot;font-size: 14px;&quot;&gt;RAS&lt;/font&gt;&lt;/h6&gt;" style="rounded=0;whiteSpace=wrap;html=1;strokeWidth=1.6;" vertex="1" parent="VFy6zFvmx7hEdRAl72uf-109">
          <mxGeometry x="211.75" y="12.5" width="91" height="41" as="geometry" />
        </mxCell>
        <mxCell id="VFy6zFvmx7hEdRAl72uf-121" value="bp_addr" style="text;html=1;align=center;verticalAlign=middle;resizable=0;points=[];autosize=1;strokeColor=none;fillColor=none;fontSize=14;fontFamily=Helvetica;fontColor=default;" vertex="1" parent="VFy6zFvmx7hEdRAl72uf-109">
          <mxGeometry x="236.5" y="53.5" width="69" height="29" as="geometry" />
        </mxCell>
        <mxCell id="VFy6zFvmx7hEdRAl72uf-122" value="" style="endArrow=classic;html=1;rounded=0;fontFamily=Helvetica;fontSize=14;fontColor=default;entryX=0.25;entryY=1;entryDx=0;entryDy=0;" edge="1" parent="VFy6zFvmx7hEdRAl72uf-99">
          <mxGeometry width="50" height="50" relative="1" as="geometry">
            <mxPoint x="-104" y="354" as="sourcePoint" />
            <mxPoint x="208" y="352" as="targetPoint" />
          </mxGeometry>
        </mxCell>
        <mxCell id="VFy6zFvmx7hEdRAl72uf-123" value="debug_addr" style="edgeLabel;html=1;align=center;verticalAlign=middle;resizable=0;points=[];fontSize=14;fontFamily=Helvetica;fontColor=default;" vertex="1" connectable="0" parent="VFy6zFvmx7hEdRAl72uf-122">
          <mxGeometry x="0.4821" relative="1" as="geometry">
            <mxPoint x="24" y="-1" as="offset" />
          </mxGeometry>
        </mxCell>
        <mxCell id="VFy6zFvmx7hEdRAl72uf-76" value="&lt;h6&gt;&lt;span style=&quot;font-size: 14px;&quot;&gt;EX&lt;/span&gt;&lt;/h6&gt;" style="rounded=0;whiteSpace=wrap;html=1;strokeWidth=1.6;" vertex="1" parent="VFy6zFvmx7hEdRAl72uf-99">
          <mxGeometry x="449.75" y="652" width="237" height="68" as="geometry" />
        </mxCell>
        <mxCell id="VFy6zFvmx7hEdRAl72uf-129" value="&lt;h6&gt;&lt;span style=&quot;font-size: 14px;&quot;&gt;COMMIT&lt;/span&gt;&lt;/h6&gt;" style="rounded=0;whiteSpace=wrap;html=1;strokeWidth=1.6;" vertex="1" parent="VFy6zFvmx7hEdRAl72uf-99">
          <mxGeometry x="180" y="652" width="237" height="68" as="geometry" />
        </mxCell>
        <mxCell id="VFy6zFvmx7hEdRAl72uf-125" style="edgeStyle=orthogonalEdgeStyle;rounded=0;orthogonalLoop=1;jettySize=auto;html=1;exitX=0.5;exitY=0;exitDx=0;exitDy=0;entryX=0.5;entryY=1;entryDx=0;entryDy=0;fontFamily=Helvetica;fontSize=14;fontColor=default;" edge="1" parent="VFy6zFvmx7hEdRAl72uf-99" source="VFy6zFvmx7hEdRAl72uf-76" target="VFy6zFvmx7hEdRAl72uf-109">
          <mxGeometry relative="1" as="geometry" />
        </mxCell>
        <mxCell id="VFy6zFvmx7hEdRAl72uf-126" value="resolve_branch" style="edgeLabel;html=1;align=center;verticalAlign=middle;resizable=0;points=[];fontSize=14;fontFamily=Helvetica;fontColor=default;" vertex="1" connectable="0" parent="VFy6zFvmx7hEdRAl72uf-125">
          <mxGeometry x="-0.5652" y="-1" relative="1" as="geometry">
            <mxPoint x="-4" y="3" as="offset" />
          </mxGeometry>
        </mxCell>
        <mxCell id="VFy6zFvmx7hEdRAl72uf-131" value="&lt;h6&gt;&lt;span style=&quot;font-size: 14px;&quot;&gt;CSR&lt;/span&gt;&lt;/h6&gt;" style="rounded=0;whiteSpace=wrap;html=1;strokeWidth=1.6;" vertex="1" parent="VFy6zFvmx7hEdRAl72uf-99">
          <mxGeometry x="56" y="652" width="91" height="68" as="geometry" />
        </mxCell>
        <mxCell id="VFy6zFvmx7hEdRAl72uf-40" value="" style="group;fillColor=#d5e8d4;strokeColor=#82b366;" vertex="1" connectable="0" parent="VFy6zFvmx7hEdRAl72uf-99">
          <mxGeometry x="775" y="78" width="75" height="106" as="geometry" />
        </mxCell>
        <mxCell id="VFy6zFvmx7hEdRAl72uf-35" value="" style="rounded=0;whiteSpace=wrap;html=1;strokeColor=#82b366;strokeWidth=1.6;fontFamily=Helvetica;fontSize=14;fillColor=#d5e8d4;" vertex="1" parent="VFy6zFvmx7hEdRAl72uf-40">
          <mxGeometry width="75" height="26.5" as="geometry" />
        </mxCell>
        <mxCell id="VFy6zFvmx7hEdRAl72uf-36" value="" style="rounded=0;whiteSpace=wrap;html=1;strokeColor=#82b366;strokeWidth=1.6;fontFamily=Helvetica;fontSize=14;fillColor=#d5e8d4;" vertex="1" parent="VFy6zFvmx7hEdRAl72uf-40">
          <mxGeometry y="28" width="75" height="25" as="geometry" />
        </mxCell>
        <mxCell id="VFy6zFvmx7hEdRAl72uf-38" value="" style="rounded=0;whiteSpace=wrap;html=1;strokeColor=#82b366;strokeWidth=1.6;fontFamily=Helvetica;fontSize=14;fillColor=#d5e8d4;" vertex="1" parent="VFy6zFvmx7hEdRAl72uf-40">
          <mxGeometry y="53" width="75" height="26.5" as="geometry" />
        </mxCell>
        <mxCell id="VFy6zFvmx7hEdRAl72uf-39" value="" style="rounded=0;whiteSpace=wrap;html=1;strokeColor=#82b366;strokeWidth=1.6;fontFamily=Helvetica;fontSize=14;fillColor=#d5e8d4;" vertex="1" parent="VFy6zFvmx7hEdRAl72uf-40">
          <mxGeometry y="79.5" width="75" height="26.5" as="geometry" />
        </mxCell>
        <mxCell id="VFy6zFvmx7hEdRAl72uf-124" value="&lt;b&gt;Inst Q&lt;/b&gt;" style="text;html=1;align=center;verticalAlign=middle;resizable=0;points=[];autosize=1;strokeColor=none;fillColor=none;fontSize=14;fontFamily=Helvetica;fontColor=default;" vertex="1" parent="VFy6zFvmx7hEdRAl72uf-99">
          <mxGeometry x="784" y="51" width="58" height="29" as="geometry" />
        </mxCell>
        <mxCell id="VFy6zFvmx7hEdRAl72uf-159" value="" style="endArrow=classic;html=1;rounded=0;fontFamily=Helvetica;fontSize=14;fontColor=default;entryX=1;entryY=0.25;entryDx=0;entryDy=0;exitX=0;exitY=0.5;exitDx=0;exitDy=0;" edge="1" parent="1" source="VFy6zFvmx7hEdRAl72uf-164">
          <mxGeometry width="50" height="50" relative="1" as="geometry">
            <mxPoint x="1404" y="742.67" as="sourcePoint" />
            <mxPoint x="1361" y="742.42" as="targetPoint" />
          </mxGeometry>
        </mxCell>
        <mxCell id="VFy6zFvmx7hEdRAl72uf-160" value="fs" style="edgeLabel;html=1;align=center;verticalAlign=middle;resizable=0;points=[];fontSize=14;fontFamily=Helvetica;fontColor=default;" vertex="1" connectable="0" parent="VFy6zFvmx7hEdRAl72uf-159">
          <mxGeometry x="-0.7115" y="-2" relative="1" as="geometry">
            <mxPoint x="-18" y="1" as="offset" />
          </mxGeometry>
        </mxCell>
        <mxCell id="VFy6zFvmx7hEdRAl72uf-161" value="" style="endArrow=classic;html=1;rounded=0;fontFamily=Helvetica;fontSize=14;fontColor=default;entryX=1;entryY=0.25;entryDx=0;entryDy=0;exitX=0;exitY=0.75;exitDx=0;exitDy=0;" edge="1" parent="1" source="VFy6zFvmx7hEdRAl72uf-164">
          <mxGeometry width="50" height="50" relative="1" as="geometry">
            <mxPoint x="1404" y="760.25" as="sourcePoint" />
            <mxPoint x="1361" y="760" as="targetPoint" />
          </mxGeometry>
        </mxCell>
        <mxCell id="VFy6zFvmx7hEdRAl72uf-162" value="tvm.." style="edgeLabel;html=1;align=center;verticalAlign=middle;resizable=0;points=[];fontSize=14;fontFamily=Helvetica;fontColor=default;" vertex="1" connectable="0" parent="VFy6zFvmx7hEdRAl72uf-161">
          <mxGeometry x="-0.7115" y="-2" relative="1" as="geometry">
            <mxPoint x="-13" y="1" as="offset" />
          </mxGeometry>
        </mxCell>
        <mxCell id="VFy6zFvmx7hEdRAl72uf-148" style="edgeStyle=orthogonalEdgeStyle;rounded=0;orthogonalLoop=1;jettySize=auto;html=1;exitX=0.5;exitY=1;exitDx=0;exitDy=0;entryX=0;entryY=0.5;entryDx=0;entryDy=0;fontFamily=Helvetica;fontSize=14;fontColor=default;" edge="1" parent="1" source="VFy6zFvmx7hEdRAl72uf-39" target="VFy6zFvmx7hEdRAl72uf-137">
          <mxGeometry relative="1" as="geometry" />
        </mxCell>
        <mxCell id="VFy6zFvmx7hEdRAl72uf-150" value="inst/inst.c" style="edgeLabel;html=1;align=center;verticalAlign=middle;resizable=0;points=[];fontSize=14;fontFamily=Helvetica;fontColor=default;" vertex="1" connectable="0" parent="VFy6zFvmx7hEdRAl72uf-148">
          <mxGeometry x="0.7351" relative="1" as="geometry">
            <mxPoint x="-22" as="offset" />
          </mxGeometry>
        </mxCell>
        <mxCell id="VFy6zFvmx7hEdRAl72uf-178" style="edgeStyle=orthogonalEdgeStyle;rounded=0;orthogonalLoop=1;jettySize=auto;html=1;exitX=0.5;exitY=1;exitDx=0;exitDy=0;entryX=0;entryY=0.5;entryDx=0;entryDy=0;fontFamily=Helvetica;fontSize=14;fontColor=default;" edge="1" parent="1" source="VFy6zFvmx7hEdRAl72uf-39" target="VFy6zFvmx7hEdRAl72uf-152">
          <mxGeometry relative="1" as="geometry" />
        </mxCell>
        <mxCell id="VFy6zFvmx7hEdRAl72uf-179" value="address" style="edgeLabel;html=1;align=center;verticalAlign=middle;resizable=0;points=[];fontSize=14;fontFamily=Helvetica;fontColor=default;" vertex="1" connectable="0" parent="VFy6zFvmx7hEdRAl72uf-178">
          <mxGeometry x="0.7797" y="2" relative="1" as="geometry">
            <mxPoint x="-12" y="1" as="offset" />
          </mxGeometry>
        </mxCell>
        <mxCell id="VFy6zFvmx7hEdRAl72uf-191" style="edgeStyle=orthogonalEdgeStyle;rounded=0;orthogonalLoop=1;jettySize=auto;html=1;exitX=0.127;exitY=1.005;exitDx=0;exitDy=0;fontFamily=Helvetica;fontSize=14;fontColor=default;startSize=23;exitPerimeter=0;" edge="1" parent="1" source="VFy6zFvmx7hEdRAl72uf-181">
          <mxGeometry relative="1" as="geometry">
            <mxPoint x="1707" y="684" as="targetPoint" />
            <Array as="points" />
          </mxGeometry>
        </mxCell>
        <mxCell id="VFy6zFvmx7hEdRAl72uf-192" value="rd_clobber" style="edgeLabel;html=1;align=center;verticalAlign=middle;resizable=0;points=[];fontSize=14;fontFamily=Helvetica;fontColor=default;" vertex="1" connectable="0" parent="VFy6zFvmx7hEdRAl72uf-191">
          <mxGeometry x="-0.2232" y="1" relative="1" as="geometry">
            <mxPoint as="offset" />
          </mxGeometry>
        </mxCell>
        <mxCell id="VFy6zFvmx7hEdRAl72uf-193" style="edgeStyle=orthogonalEdgeStyle;rounded=0;orthogonalLoop=1;jettySize=auto;html=1;exitX=0.345;exitY=0.98;exitDx=0;exitDy=0;entryX=0.191;entryY=-0.015;entryDx=0;entryDy=0;entryPerimeter=0;fontFamily=Helvetica;fontSize=14;fontColor=default;startSize=23;exitPerimeter=0;" edge="1" parent="1">
          <mxGeometry relative="1" as="geometry">
            <mxPoint x="1867.785" y="592.6299999999999" as="sourcePoint" />
            <mxPoint x="1867.004" y="685.9950000000001" as="targetPoint" />
          </mxGeometry>
        </mxCell>
        <mxCell id="VFy6zFvmx7hEdRAl72uf-195" value="forward" style="edgeLabel;html=1;align=center;verticalAlign=middle;resizable=0;points=[];fontSize=14;fontFamily=Helvetica;fontColor=default;" vertex="1" connectable="0" parent="VFy6zFvmx7hEdRAl72uf-193">
          <mxGeometry x="-0.2207" relative="1" as="geometry">
            <mxPoint as="offset" />
          </mxGeometry>
        </mxCell>
        <mxCell id="VFy6zFvmx7hEdRAl72uf-182" style="edgeStyle=orthogonalEdgeStyle;rounded=0;orthogonalLoop=1;jettySize=auto;html=1;exitX=1;exitY=0.5;exitDx=0;exitDy=0;entryX=0;entryY=0.5;entryDx=0;entryDy=0;fontFamily=Helvetica;fontSize=14;fontColor=default;startSize=23;" edge="1" parent="1" source="VFy6zFvmx7hEdRAl72uf-169" target="VFy6zFvmx7hEdRAl72uf-181">
          <mxGeometry relative="1" as="geometry" />
        </mxCell>
        <mxCell id="VFy6zFvmx7hEdRAl72uf-183" value="issue_q" style="edgeLabel;html=1;align=center;verticalAlign=middle;resizable=0;points=[];fontSize=14;fontFamily=Helvetica;fontColor=default;" vertex="1" connectable="0" parent="VFy6zFvmx7hEdRAl72uf-182">
          <mxGeometry x="-0.8447" relative="1" as="geometry">
            <mxPoint x="8" as="offset" />
          </mxGeometry>
        </mxCell>
        <mxCell id="VFy6zFvmx7hEdRAl72uf-196" style="edgeStyle=orthogonalEdgeStyle;rounded=0;orthogonalLoop=1;jettySize=auto;html=1;exitX=0.25;exitY=0;exitDx=0;exitDy=0;fontFamily=Helvetica;fontSize=14;fontColor=default;startSize=23;" edge="1" parent="1" source="VFy6zFvmx7hEdRAl72uf-185">
          <mxGeometry relative="1" as="geometry">
            <mxPoint x="1784" y="593" as="targetPoint" />
          </mxGeometry>
        </mxCell>
        <mxCell id="VFy6zFvmx7hEdRAl72uf-197" value="issue_ack" style="edgeLabel;html=1;align=center;verticalAlign=middle;resizable=0;points=[];fontSize=14;fontFamily=Helvetica;fontColor=default;" vertex="1" connectable="0" parent="VFy6zFvmx7hEdRAl72uf-196">
          <mxGeometry x="0.1662" y="2" relative="1" as="geometry">
            <mxPoint as="offset" />
          </mxGeometry>
        </mxCell>
        <mxCell id="VFy6zFvmx7hEdRAl72uf-228" style="edgeStyle=orthogonalEdgeStyle;rounded=0;orthogonalLoop=1;jettySize=auto;html=1;exitX=0.997;exitY=0.233;exitDx=0;exitDy=0;entryX=0;entryY=0.5;entryDx=0;entryDy=0;fontFamily=Helvetica;fontSize=14;fontColor=default;startSize=6;exitPerimeter=0;endArrow=classic;endFill=1;startArrow=classic;startFill=1;" edge="1" parent="1" source="VFy6zFvmx7hEdRAl72uf-185" target="VFy6zFvmx7hEdRAl72uf-221">
          <mxGeometry relative="1" as="geometry" />
        </mxCell>
        <mxCell id="VFy6zFvmx7hEdRAl72uf-236" value="handshake" style="edgeLabel;html=1;align=center;verticalAlign=middle;resizable=0;points=[];fontSize=14;fontFamily=Helvetica;fontColor=default;" vertex="1" connectable="0" parent="VFy6zFvmx7hEdRAl72uf-228">
          <mxGeometry x="-0.0914" y="-2" relative="1" as="geometry">
            <mxPoint x="1" as="offset" />
          </mxGeometry>
        </mxCell>
        <mxCell id="VFy6zFvmx7hEdRAl72uf-227" value="" style="group" vertex="1" connectable="0" parent="1">
          <mxGeometry x="2207" y="771" width="98" height="340" as="geometry" />
        </mxCell>
        <mxCell id="VFy6zFvmx7hEdRAl72uf-221" value="&lt;h6&gt;&lt;span style=&quot;font-size: 14px;&quot;&gt;ALU&lt;/span&gt;&lt;/h6&gt;" style="rounded=0;whiteSpace=wrap;html=1;strokeWidth=1.6;" vertex="1" parent="VFy6zFvmx7hEdRAl72uf-227">
          <mxGeometry width="98" height="68" as="geometry" />
        </mxCell>
        <mxCell id="VFy6zFvmx7hEdRAl72uf-223" value="&lt;h6&gt;&lt;span style=&quot;font-size: 14px;&quot;&gt;BRU&lt;/span&gt;&lt;/h6&gt;" style="rounded=0;whiteSpace=wrap;html=1;strokeWidth=1.6;" vertex="1" parent="VFy6zFvmx7hEdRAl72uf-227">
          <mxGeometry y="68" width="98" height="68" as="geometry" />
        </mxCell>
        <mxCell id="VFy6zFvmx7hEdRAl72uf-224" value="&lt;h6&gt;&lt;span style=&quot;font-size: 14px;&quot;&gt;CSR Buffer&lt;/span&gt;&lt;/h6&gt;" style="rounded=0;whiteSpace=wrap;html=1;strokeWidth=1.6;" vertex="1" parent="VFy6zFvmx7hEdRAl72uf-227">
          <mxGeometry y="136" width="98" height="68" as="geometry" />
        </mxCell>
        <mxCell id="VFy6zFvmx7hEdRAl72uf-225" value="&lt;h6&gt;&lt;span style=&quot;font-size: 14px;&quot;&gt;Mul/Div&lt;/span&gt;&lt;/h6&gt;" style="rounded=0;whiteSpace=wrap;html=1;strokeWidth=1.6;" vertex="1" parent="VFy6zFvmx7hEdRAl72uf-227">
          <mxGeometry y="272" width="98" height="68" as="geometry" />
        </mxCell>
        <mxCell id="VFy6zFvmx7hEdRAl72uf-226" value="&lt;h6&gt;&lt;span style=&quot;font-size: 14px;&quot;&gt;LSU&lt;/span&gt;&lt;/h6&gt;" style="rounded=0;whiteSpace=wrap;html=1;strokeWidth=1.6;" vertex="1" parent="VFy6zFvmx7hEdRAl72uf-227">
          <mxGeometry y="204" width="98" height="68" as="geometry" />
        </mxCell>
        <mxCell id="VFy6zFvmx7hEdRAl72uf-230" style="edgeStyle=orthogonalEdgeStyle;shape=connector;rounded=0;orthogonalLoop=1;jettySize=auto;html=1;exitX=0;exitY=0.5;exitDx=0;exitDy=0;entryX=1.002;entryY=0.367;entryDx=0;entryDy=0;entryPerimeter=0;labelBackgroundColor=default;strokeColor=default;fontFamily=Helvetica;fontSize=14;fontColor=default;startArrow=classic;startFill=1;endArrow=classic;endFill=1;startSize=6;" edge="1" parent="1" source="VFy6zFvmx7hEdRAl72uf-223" target="VFy6zFvmx7hEdRAl72uf-185">
          <mxGeometry relative="1" as="geometry" />
        </mxCell>
        <mxCell id="VFy6zFvmx7hEdRAl72uf-238" value="handshake" style="edgeLabel;html=1;align=center;verticalAlign=middle;resizable=0;points=[];fontSize=14;fontFamily=Helvetica;fontColor=default;" vertex="1" connectable="0" parent="VFy6zFvmx7hEdRAl72uf-230">
          <mxGeometry x="-0.0183" y="2" relative="1" as="geometry">
            <mxPoint as="offset" />
          </mxGeometry>
        </mxCell>
        <mxCell id="VFy6zFvmx7hEdRAl72uf-231" style="edgeStyle=orthogonalEdgeStyle;shape=connector;rounded=0;orthogonalLoop=1;jettySize=auto;html=1;exitX=0;exitY=0.5;exitDx=0;exitDy=0;entryX=1;entryY=0.5;entryDx=0;entryDy=0;labelBackgroundColor=default;strokeColor=default;fontFamily=Helvetica;fontSize=14;fontColor=default;startArrow=classic;startFill=1;endArrow=classic;endFill=1;startSize=6;" edge="1" parent="1" source="VFy6zFvmx7hEdRAl72uf-224" target="VFy6zFvmx7hEdRAl72uf-185">
          <mxGeometry relative="1" as="geometry" />
        </mxCell>
        <mxCell id="VFy6zFvmx7hEdRAl72uf-239" value="handshake" style="edgeLabel;html=1;align=center;verticalAlign=middle;resizable=0;points=[];fontSize=14;fontFamily=Helvetica;fontColor=default;" vertex="1" connectable="0" parent="VFy6zFvmx7hEdRAl72uf-231">
          <mxGeometry x="-0.0078" y="-2" relative="1" as="geometry">
            <mxPoint as="offset" />
          </mxGeometry>
        </mxCell>
        <mxCell id="VFy6zFvmx7hEdRAl72uf-233" style="edgeStyle=orthogonalEdgeStyle;shape=connector;rounded=0;orthogonalLoop=1;jettySize=auto;html=1;exitX=0;exitY=0.5;exitDx=0;exitDy=0;entryX=1;entryY=0.635;entryDx=0;entryDy=0;entryPerimeter=0;labelBackgroundColor=default;strokeColor=default;fontFamily=Helvetica;fontSize=14;fontColor=default;startArrow=classic;startFill=1;endArrow=classic;endFill=1;startSize=6;" edge="1" parent="1" source="VFy6zFvmx7hEdRAl72uf-226" target="VFy6zFvmx7hEdRAl72uf-185">
          <mxGeometry relative="1" as="geometry" />
        </mxCell>
        <mxCell id="VFy6zFvmx7hEdRAl72uf-240" value="handshake" style="edgeLabel;html=1;align=center;verticalAlign=middle;resizable=0;points=[];fontSize=14;fontFamily=Helvetica;fontColor=default;" vertex="1" connectable="0" parent="VFy6zFvmx7hEdRAl72uf-233">
          <mxGeometry x="-0.03" y="-2" relative="1" as="geometry">
            <mxPoint as="offset" />
          </mxGeometry>
        </mxCell>
        <mxCell id="VFy6zFvmx7hEdRAl72uf-235" style="edgeStyle=orthogonalEdgeStyle;shape=connector;rounded=0;orthogonalLoop=1;jettySize=auto;html=1;exitX=0;exitY=0.5;exitDx=0;exitDy=0;entryX=0.998;entryY=0.765;entryDx=0;entryDy=0;entryPerimeter=0;labelBackgroundColor=default;strokeColor=default;fontFamily=Helvetica;fontSize=14;fontColor=default;startArrow=classic;startFill=1;endArrow=classic;endFill=1;startSize=6;" edge="1" parent="1" source="VFy6zFvmx7hEdRAl72uf-225" target="VFy6zFvmx7hEdRAl72uf-185">
          <mxGeometry relative="1" as="geometry" />
        </mxCell>
        <mxCell id="VFy6zFvmx7hEdRAl72uf-241" value="handshake" style="edgeLabel;html=1;align=center;verticalAlign=middle;resizable=0;points=[];fontSize=14;fontFamily=Helvetica;fontColor=default;" vertex="1" connectable="0" parent="VFy6zFvmx7hEdRAl72uf-235">
          <mxGeometry x="0.0379" y="2" relative="1" as="geometry">
            <mxPoint as="offset" />
          </mxGeometry>
        </mxCell>
        <mxCell id="VFy6zFvmx7hEdRAl72uf-242" value="EX(执行)" style="swimlane;whiteSpace=wrap;html=1;rounded=0;strokeColor=default;strokeWidth=1.6;fontFamily=Helvetica;fontSize=14;fontColor=default;fillColor=default;" vertex="1" parent="1">
          <mxGeometry x="2149" y="423" width="568" height="858" as="geometry" />
        </mxCell>
        <mxCell id="VFy6zFvmx7hEdRAl72uf-244" value="&lt;h6&gt;&lt;span style=&quot;font-size: 14px; font-weight: normal;&quot;&gt;comb&lt;/span&gt;&lt;/h6&gt;" style="rounded=0;whiteSpace=wrap;html=1;strokeWidth=1.6;" vertex="1" parent="VFy6zFvmx7hEdRAl72uf-242">
          <mxGeometry x="272" y="324.5" width="46" height="401" as="geometry" />
        </mxCell>
        <mxCell id="VFy6zFvmx7hEdRAl72uf-245" style="edgeStyle=orthogonalEdgeStyle;shape=connector;rounded=0;orthogonalLoop=1;jettySize=auto;html=1;exitX=1;exitY=0.5;exitDx=0;exitDy=0;entryX=-0.008;entryY=0.143;entryDx=0;entryDy=0;entryPerimeter=0;labelBackgroundColor=default;strokeColor=default;fontFamily=Helvetica;fontSize=14;fontColor=default;startArrow=none;startFill=0;endArrow=classic;endFill=1;startSize=6;" edge="1" parent="1" source="VFy6zFvmx7hEdRAl72uf-221" target="VFy6zFvmx7hEdRAl72uf-244">
          <mxGeometry relative="1" as="geometry" />
        </mxCell>
        <mxCell id="VFy6zFvmx7hEdRAl72uf-247" style="edgeStyle=orthogonalEdgeStyle;shape=connector;rounded=0;orthogonalLoop=1;jettySize=auto;html=1;exitX=1;exitY=0.5;exitDx=0;exitDy=0;labelBackgroundColor=default;strokeColor=default;fontFamily=Helvetica;fontSize=14;fontColor=default;startArrow=none;startFill=0;endArrow=classic;endFill=1;startSize=6;" edge="1" parent="1" source="VFy6zFvmx7hEdRAl72uf-223">
          <mxGeometry relative="1" as="geometry">
            <mxPoint x="2420" y="873" as="targetPoint" />
          </mxGeometry>
        </mxCell>
        <mxCell id="VFy6zFvmx7hEdRAl72uf-248" style="edgeStyle=orthogonalEdgeStyle;shape=connector;rounded=0;orthogonalLoop=1;jettySize=auto;html=1;exitX=1;exitY=0.5;exitDx=0;exitDy=0;entryX=0.012;entryY=0.484;entryDx=0;entryDy=0;entryPerimeter=0;labelBackgroundColor=default;strokeColor=default;fontFamily=Helvetica;fontSize=14;fontColor=default;startArrow=none;startFill=0;endArrow=classic;endFill=1;startSize=6;" edge="1" parent="1" source="VFy6zFvmx7hEdRAl72uf-224" target="VFy6zFvmx7hEdRAl72uf-244">
          <mxGeometry relative="1" as="geometry" />
        </mxCell>
        <mxCell id="VFy6zFvmx7hEdRAl72uf-249" style="edgeStyle=orthogonalEdgeStyle;shape=connector;rounded=0;orthogonalLoop=1;jettySize=auto;html=1;exitX=1;exitY=0.5;exitDx=0;exitDy=0;entryX=0.002;entryY=0.652;entryDx=0;entryDy=0;entryPerimeter=0;labelBackgroundColor=default;strokeColor=default;fontFamily=Helvetica;fontSize=14;fontColor=default;startArrow=none;startFill=0;endArrow=classic;endFill=1;startSize=6;" edge="1" parent="1" source="VFy6zFvmx7hEdRAl72uf-226" target="VFy6zFvmx7hEdRAl72uf-244">
          <mxGeometry relative="1" as="geometry" />
        </mxCell>
        <mxCell id="VFy6zFvmx7hEdRAl72uf-250" style="edgeStyle=orthogonalEdgeStyle;shape=connector;rounded=0;orthogonalLoop=1;jettySize=auto;html=1;exitX=1;exitY=0.5;exitDx=0;exitDy=0;labelBackgroundColor=default;strokeColor=default;fontFamily=Helvetica;fontSize=14;fontColor=default;startArrow=none;startFill=0;endArrow=classic;endFill=1;startSize=6;" edge="1" parent="1" source="VFy6zFvmx7hEdRAl72uf-225">
          <mxGeometry relative="1" as="geometry">
            <mxPoint x="2421" y="1077" as="targetPoint" />
          </mxGeometry>
        </mxCell>
        <mxCell id="VFy6zFvmx7hEdRAl72uf-254" style="edgeStyle=orthogonalEdgeStyle;shape=connector;rounded=0;orthogonalLoop=1;jettySize=auto;html=1;exitX=1;exitY=0.5;exitDx=0;exitDy=0;entryX=0;entryY=0.5;entryDx=0;entryDy=0;labelBackgroundColor=default;strokeColor=default;fontFamily=Helvetica;fontSize=14;fontColor=default;startArrow=none;startFill=0;endArrow=classic;endFill=1;startSize=6;" edge="1" parent="1" source="VFy6zFvmx7hEdRAl72uf-244" target="VFy6zFvmx7hEdRAl72uf-259">
          <mxGeometry relative="1" as="geometry">
            <mxPoint x="2645.506" y="948.107" as="targetPoint" />
          </mxGeometry>
        </mxCell>
        <mxCell id="VFy6zFvmx7hEdRAl72uf-255" value="writeback to scoreboard&lt;br&gt;&amp;nbsp;by trans_id" style="edgeLabel;html=1;align=center;verticalAlign=middle;resizable=0;points=[];fontSize=14;fontFamily=Helvetica;fontColor=default;" vertex="1" connectable="0" parent="VFy6zFvmx7hEdRAl72uf-254">
          <mxGeometry x="-0.2792" relative="1" as="geometry">
            <mxPoint x="19" y="21" as="offset" />
          </mxGeometry>
        </mxCell>
        <mxCell id="VFy6zFvmx7hEdRAl72uf-275" style="edgeStyle=orthogonalEdgeStyle;shape=connector;rounded=0;orthogonalLoop=1;jettySize=auto;html=1;exitX=0.5;exitY=1;exitDx=0;exitDy=0;entryX=0;entryY=0.5;entryDx=0;entryDy=0;labelBackgroundColor=default;strokeColor=default;fontFamily=Helvetica;fontSize=14;fontColor=default;startArrow=none;startFill=0;endArrow=classic;endFill=1;startSize=6;" edge="1" parent="1" source="VFy6zFvmx7hEdRAl72uf-263" target="VFy6zFvmx7hEdRAl72uf-272">
          <mxGeometry relative="1" as="geometry" />
        </mxCell>
        <mxCell id="VFy6zFvmx7hEdRAl72uf-276" style="edgeStyle=orthogonalEdgeStyle;shape=connector;rounded=0;orthogonalLoop=1;jettySize=auto;html=1;exitX=0.5;exitY=1;exitDx=0;exitDy=0;entryX=0;entryY=0.5;entryDx=0;entryDy=0;labelBackgroundColor=default;strokeColor=default;fontFamily=Helvetica;fontSize=14;fontColor=default;startArrow=none;startFill=0;endArrow=classic;endFill=1;startSize=6;" edge="1" parent="1" source="VFy6zFvmx7hEdRAl72uf-263" target="VFy6zFvmx7hEdRAl72uf-273">
          <mxGeometry relative="1" as="geometry" />
        </mxCell>
        <mxCell id="VFy6zFvmx7hEdRAl72uf-277" style="edgeStyle=orthogonalEdgeStyle;shape=connector;rounded=0;orthogonalLoop=1;jettySize=auto;html=1;exitX=0.5;exitY=1;exitDx=0;exitDy=0;entryX=0;entryY=0.5;entryDx=0;entryDy=0;labelBackgroundColor=default;strokeColor=default;fontFamily=Helvetica;fontSize=14;fontColor=default;startArrow=none;startFill=0;endArrow=classic;endFill=1;startSize=6;" edge="1" parent="1" source="VFy6zFvmx7hEdRAl72uf-263" target="VFy6zFvmx7hEdRAl72uf-274">
          <mxGeometry relative="1" as="geometry" />
        </mxCell>
        <mxCell id="VFy6zFvmx7hEdRAl72uf-278" value="writeback to dest" style="edgeLabel;html=1;align=center;verticalAlign=middle;resizable=0;points=[];fontSize=14;fontFamily=Helvetica;fontColor=default;" vertex="1" connectable="0" parent="VFy6zFvmx7hEdRAl72uf-277">
          <mxGeometry x="-0.4008" relative="1" as="geometry">
            <mxPoint x="-28" y="14" as="offset" />
          </mxGeometry>
        </mxCell>
        <mxCell id="VFy6zFvmx7hEdRAl72uf-265" value="" style="group" vertex="1" connectable="0" parent="1">
          <mxGeometry x="2646" y="779" width="100" height="320.5" as="geometry" />
        </mxCell>
        <mxCell id="VFy6zFvmx7hEdRAl72uf-256" value="" style="group;fillColor=#ffe6cc;strokeColor=#d79b00;" vertex="1" connectable="0" parent="VFy6zFvmx7hEdRAl72uf-265">
          <mxGeometry y="29.182103610675046" width="100" height="194.2119309262167" as="geometry" />
        </mxCell>
        <mxCell id="VFy6zFvmx7hEdRAl72uf-257" value="tail" style="rounded=0;whiteSpace=wrap;html=1;strokeColor=#d79b00;strokeWidth=1.6;fontFamily=Helvetica;fontSize=14;fillColor=#ffe6cc;" vertex="1" parent="VFy6zFvmx7hEdRAl72uf-256">
          <mxGeometry y="2.7471428571428578" width="100" height="48.552982731554174" as="geometry" />
        </mxCell>
        <mxCell id="VFy6zFvmx7hEdRAl72uf-258" value="" style="rounded=0;whiteSpace=wrap;html=1;strokeColor=#d79b00;strokeWidth=1.6;fontFamily=Helvetica;fontSize=14;fillColor=#ffe6cc;" vertex="1" parent="VFy6zFvmx7hEdRAl72uf-256">
          <mxGeometry y="51.301264772962895" width="100" height="45.80470069014544" as="geometry" />
        </mxCell>
        <mxCell id="VFy6zFvmx7hEdRAl72uf-259" value="" style="rounded=0;whiteSpace=wrap;html=1;strokeColor=#d79b00;strokeWidth=1.6;fontFamily=Helvetica;fontSize=14;fillColor=#ffe6cc;" vertex="1" parent="VFy6zFvmx7hEdRAl72uf-256">
          <mxGeometry y="97.10596546310835" width="100" height="48.552982731554174" as="geometry" />
        </mxCell>
        <mxCell id="VFy6zFvmx7hEdRAl72uf-260" value="" style="rounded=0;whiteSpace=wrap;html=1;strokeColor=#d79b00;strokeWidth=1.6;fontFamily=Helvetica;fontSize=14;fillColor=#ffe6cc;" vertex="1" parent="VFy6zFvmx7hEdRAl72uf-256">
          <mxGeometry y="145.6589481946625" width="100" height="48.552982731554174" as="geometry" />
        </mxCell>
        <mxCell id="VFy6zFvmx7hEdRAl72uf-262" value="" style="rounded=0;whiteSpace=wrap;html=1;strokeColor=#d79b00;strokeWidth=1.6;fontFamily=Helvetica;fontSize=14;fillColor=#ffe6cc;" vertex="1" parent="VFy6zFvmx7hEdRAl72uf-265">
          <mxGeometry y="223.39403453689172" width="100" height="48.552982731554174" as="geometry" />
        </mxCell>
        <mxCell id="VFy6zFvmx7hEdRAl72uf-263" value="head" style="rounded=0;whiteSpace=wrap;html=1;strokeColor=#d79b00;strokeWidth=1.6;fontFamily=Helvetica;fontSize=14;fillColor=#ffe6cc;" vertex="1" parent="VFy6zFvmx7hEdRAl72uf-265">
          <mxGeometry y="271.94701726844585" width="100" height="48.552982731554174" as="geometry" />
        </mxCell>
        <mxCell id="VFy6zFvmx7hEdRAl72uf-264" value="&lt;b&gt;Scoreboard&lt;/b&gt;" style="text;html=1;align=center;verticalAlign=middle;resizable=0;points=[];autosize=1;strokeColor=none;fillColor=none;fontSize=14;fontFamily=Helvetica;fontColor=default;" vertex="1" parent="VFy6zFvmx7hEdRAl72uf-265">
          <mxGeometry x="0.004285714285710895" y="0.18" width="96" height="29" as="geometry" />
        </mxCell>
      </root>
    </mxGraphModel>
  </diagram>
</mxfile>
